<svg width="20" height="20" viewBox="0 0 20 20" fill="none" xmlns="http://www.w3.org/2000/svg">
<path d="M16.3637 14.4698C16.0708 14.1769 15.5959 14.1769 15.3031 14.4698C15.0102 14.7626 15.0102 15.2375 15.303 15.5304L16.3637 14.4698ZM18.6363 18.8637C18.9292 19.1566 19.4041 19.1566 19.697 18.8637C19.9898 18.5708 19.9898 18.0959 19.697 17.803L18.6363 18.8637ZM15.303 15.5304L18.6363 18.8637L19.697 17.803L16.3637 14.4698L15.303 15.5304ZM9.16666 15.0833C5.43873 15.0833 2.41666 12.0613 2.41666 8.33334H0.916656C0.916656 12.8897 4.61031 16.5833 9.16666 16.5833V15.0833ZM15.9167 8.33334C15.9167 12.0613 12.8946 15.0833 9.16666 15.0833V16.5833C13.723 16.5833 17.4167 12.8897 17.4167 8.33334H15.9167ZM9.16666 1.58334C12.8946 1.58334 15.9167 4.60542 15.9167 8.33334H17.4167C17.4167 3.77699 13.723 0.0833435 9.16666 0.0833435V1.58334ZM9.16666 0.0833435C4.61031 0.0833435 0.916656 3.77699 0.916656 8.33334H2.41666C2.41666 4.60542 5.43873 1.58334 9.16666 1.58334V0.0833435Z" fill="black" fill-opacity="0.7"/>
</svg>
